<?xml version="1.0" standalone="no"?>
<!DOCTYPE svg PUBLIC "-//W3C//DTD SVG 20010904//EN"
 "http://www.w3.org/TR/2001/REC-SVG-20010904/DTD/svg10.dtd">
<svg version="1.0" xmlns="http://www.w3.org/2000/svg"
 width="700.000000pt" height="700.000000pt" viewBox="0 0 700.000000 700.000000"
 preserveAspectRatio="xMidYMid meet">
<metadata>
Created by potrace 1.11, written by Peter Selinger 2001-2013
</metadata>
<g transform="translate(0.000000,700.000000) scale(0.100000,-0.100000)"
fill="#000000" stroke="none">
<path d="M0 3500 l0 -3500 3260 0 3260 0 0 3500 0 3500 -3260 0 -3260 0 0
-3500z m2040 3286 c131 -23 308 -65 350 -85 46 -21 50 -58 16 -136 -31 -69
-66 -179 -66 -207 0 -18 4 -20 41 -14 23 4 118 31 212 62 397 129 823 199
1282 211 390 10 1247 -27 1407 -62 90 -19 183 -66 278 -142 95 -76 151 -140
265 -303 102 -145 130 -182 204 -265 94 -106 111 -160 186 -590 50 -286 63
-415 46 -457 -38 -99 -394 -176 -686 -148 -130 12 -291 58 -374 107 -103 60
-136 108 -185 273 -14 49 -46 121 -74 166 -66 110 -170 242 -204 260 -49 25
-246 36 -553 31 -236 -4 -313 -9 -415 -26 -231 -40 -570 -140 -667 -196 -61
-36 -113 -85 -241 -225 -129 -140 -291 -342 -378 -470 l-65 -95 21 -380 c32
-616 40 -864 50 -1550 9 -618 17 -782 41 -811 18 -22 107 -34 310 -43 180 -7
199 -10 240 -32 62 -34 88 -103 100 -259 15 -191 -15 -615 -49 -702 -11 -27
-14 -28 -129 -57 -147 -37 -526 -85 -810 -102 -256 -15 -948 -6 -1133 15 -428
50 -502 93 -544 318 -20 102 -39 370 -31 421 20 119 132 218 313 278 53 17
147 51 207 74 61 24 151 51 200 60 50 9 101 19 114 21 l24 5 -6 477 c-7 458
-30 1588 -42 2047 -18 696 -37 1072 -56 1131 -12 39 -54 78 -98 93 -80 26
-251 7 -402 -45 -89 -30 -202 -43 -214 -24 -8 13 8 30 51 56 17 10 18 15 6 45
-59 149 -81 269 -108 579 -27 326 -16 355 172 471 204 125 414 194 689 228 50
6 104 13 120 15 74 10 495 -3 585 -18z"/>
<path d="M1320 6551 c0 -10 22 -42 48 -70 35 -37 55 -51 75 -51 59 0 41 49
-39 106 -54 38 -84 44 -84 15z"/>
<path d="M2180 6535 c-10 -12 -10 -18 0 -30 7 -8 18 -15 25 -15 7 0 18 7 25
15 10 12 10 18 0 30 -7 8 -18 15 -25 15 -7 0 -18 -7 -25 -15z"/>
<path d="M4477 6472 c-31 -34 -17 -53 31 -44 29 6 39 27 22 47 -17 20 -33 19
-53 -3z"/>
<path d="M3452 6394 c-29 -14 -69 -42 -89 -62 -91 -93 -139 -302 -69 -302 54
0 227 247 251 358 6 29 4 32 -17 32 -13 -1 -47 -12 -76 -26z"/>
<path d="M4078 6409 c-27 -15 -22 -26 18 -39 41 -14 131 -7 148 10 31 31 -119
57 -166 29z"/>
<path d="M5260 6401 c0 -10 7 -24 15 -31 19 -16 45 3 45 31 0 14 -7 19 -30 19
-23 0 -30 -5 -30 -19z"/>
<path d="M845 6378 c-21 -11 -45 -37 -45 -49 0 -17 67 -70 108 -86 45 -17 45
-17 64 7 54 66 -50 171 -127 128z"/>
<path d="M4775 6380 c-8 -12 20 -24 35 -15 6 3 8 11 5 16 -8 12 -32 12 -40 -1z"/>
<path d="M3772 6328 c-7 -7 -12 -28 -12 -47 0 -58 22 -165 37 -183 20 -22 62
-31 79 -17 19 16 19 177 0 224 -13 31 -19 35 -53 35 -22 0 -44 -5 -51 -12z"/>
<path d="M2150 6316 c-18 -22 -5 -46 25 -46 23 0 26 4 23 27 -3 32 -29 41 -48
19z"/>
<path d="M5084 5952 c-90 -66 -184 -200 -184 -264 0 -76 113 6 215 156 56 83
67 119 39 130 -24 9 -28 8 -70 -22z"/>
<path d="M5634 5968 c-9 -14 15 -33 91 -69 93 -45 125 -36 63 17 -37 30 -104
63 -130 64 -9 0 -20 -5 -24 -12z"/>
<path d="M1045 5885 c-54 -25 -60 -32 -46 -49 36 -43 174 9 145 55 -8 13 -65
10 -99 -6z"/>
<path d="M2440 5736 c-10 -13 -10 -19 0 -31 24 -29 85 -13 78 21 -4 25 -59 31
-78 10z"/>
<path d="M5256 5327 c-13 -10 -16 -20 -11 -36 6 -21 8 -22 26 -5 19 17 26 54
11 54 -5 0 -16 -6 -26 -13z"/>
<path d="M1956 5311 c-27 -30 -58 -139 -59 -212 -2 -77 17 -109 65 -109 40 0
48 28 48 170 0 113 -9 170 -28 170 -5 0 -17 -9 -26 -19z"/>
<path d="M1940 4842 c-61 -30 -63 -43 -61 -532 1 -450 8 -837 17 -879 21 -101
56 185 89 739 24 404 29 643 16 668 -14 26 -17 27 -61 4z"/>
<path d="M2171 2345 c-17 -20 -31 -39 -31 -43 0 -15 24 -32 46 -32 30 0 47 24
48 67 1 51 -22 54 -63 8z"/>
<path d="M1238 1073 c57 -2 147 -2 200 0 53 1 7 3 -103 3 -110 0 -154 -2 -97
-3z"/>
<path d="M2113 1045 c-40 -17 -42 -37 -7 -64 43 -34 131 -22 174 24 19 20 21
27 10 40 -16 20 -132 20 -177 0z"/>
<path d="M640 989 c0 -42 3 -50 17 -47 10 2 24 15 32 30 14 24 14 28 -3 47
-32 36 -46 27 -46 -30z"/>
<path d="M946 882 c-9 -14 40 -47 94 -63 51 -15 546 -20 613 -6 71 15 38 31
-123 58 -92 15 -575 25 -584 11z"/>
</g>
</svg>
